<svg id="Livello_1" data-name="Livello 1" xmlns="http://www.w3.org/2000/svg" viewBox="0 0 944.93 279.86"><path d="M-1059.67,614.78V396.16c.61-.54.24-1.28.38-1.91,2.49-11.47,8.88-19.95,19.36-25.31,3.33-1.7,7-2.47,10.52-3.38H-145c.14.1.27.29.42.31a32.21,32.21,0,0,1,15.6,6.42c8.68,6.57,14.15,15.3,14.17,26.22.19,70.29.09,140.57.08,210.86a38.32,38.32,0,0,1-.3,6,34.58,34.58,0,0,1-11.43,21c-7.09,6.34-15.52,9-25,9q-435.58,0-871.15,0a42.51,42.51,0,0,1-8.58-.74c-11.53-2.36-19.83-8.92-25.15-19.33C-1058,622-1058.81,618.37-1059.67,614.78Zm472.45,24.79q218.31,0,436.61.07c15.77,0,30.24-12.11,30.24-29.81q0-104.51,0-209a29.38,29.38,0,0,0-29.77-29.67h-874.15a29.39,29.39,0,0,0-29.76,29.69q0,104.61,0,209.21a30,30,0,0,0,1.24,8.53c3.72,12.56,15.58,21.06,29,21Q-805.52,639.48-587.22,639.57Z" transform="translate(1059.67 -365.56)" fill="#a0a09f"/><path d="M-587.22,639.57q-218.31,0-436.61,0c-13.43,0-25.29-8.49-29-21a30,30,0,0,1-1.24-8.53q0-104.61,0-209.21a29.39,29.39,0,0,1,29.76-29.69h874.15a29.38,29.38,0,0,1,29.77,29.67q.06,104.52,0,209c0,17.7-14.47,29.82-30.24,29.81Q-368.9,639.44-587.22,639.57ZM-875.74,467a2.93,2.93,0,0,0-1.31-1l-82.28-47.64a20.19,20.19,0,0,0-15.27-2.26c-7.21,1.7-13.45,8-14.53,14.62a12.23,12.23,0,0,0-.75,4.68q0,70,0,139.92a12.27,12.27,0,0,0,.78,4.87,5.67,5.67,0,0,0,.09.72c3.67,12.55,18.06,18.17,29.63,11.52q36.09-20.74,72.13-41.57c3.92-2.26,8-4.35,11.71-6.91a12.06,12.06,0,0,0,1.16-.52c11.7-6.74,23.44-13.44,35.11-20.24,14-8.15,14-27,.08-35.21-11.23-6.6-22.52-13.07-33.79-19.58A9.67,9.67,0,0,0-875.74,467Zm171.61,59.74c-6.52,0-13,0-19.56,0-1.38,0-1.94.25-1.88,1.78.14,3,.13,6,0,9-.07,1.55.42,1.93,1.93,1.91,8.92-.07,17.84,0,26.76,0,.75,0,1.69-.28,1.45,1.12-1,5.93-3,11.33-7.59,15.57-7.73,7.21-17,9.41-27.14,8.05a32.67,32.67,0,0,1-27.55-25.05,34,34,0,0,1,13.24-35.78,33.11,33.11,0,0,1,40.47,2c1,.89,1.56.9,2.49-.1,2.09-2.26,4.25-4.45,6.52-6.52,1.17-1.06.87-1.59-.14-2.47-12-10.45-25.9-13.87-41.22-10.08-17.78,4.4-29.74,15.64-34.46,33.32s.27,33.24,13.86,45.39c14.41,12.88,31.39,15.82,49.31,8.91,19.33-7.47,27-25.09,25-44.79-.18-1.92-.89-2.33-2.7-2.3C-691.58,526.78-697.86,526.71-704.13,526.71Zm201.27,43.56a39.32,39.32,0,0,1-.23,8.58c-.88,6.42-4.8,11.1-10.55,12.61-8,2.1-15.41-1.09-19.24-8.48-.72-1.37-1.3-1.34-2.47-.82-2.57,1.15-5.17,2.26-7.82,3.23-1.53.56-1.85,1.12-1,2.69a28.66,28.66,0,0,0,29.15,15.55c11.48-1.3,19.38-7.15,23-18.31a43.71,43.71,0,0,0,1.72-13.46q0-25.26,0-50.51c0-.31,0-.62,0-.92.07-.79-.26-1.07-1.06-1.06-3.38,0-6.77.06-10.15,0-1.07,0-1.21.45-1.17,1.32.05,1.14,0,2.27,0,3.35-.3.06-.37.1-.4.08a3.18,3.18,0,0,1-.6-.41c-5.42-5.37-12.08-7-19.35-5.69-13,2.27-22.5,12.74-24.19,26.26a29.82,29.82,0,0,0,17.54,30.44c7.91,3.43,15.75,3.53,23.19-1.39A45.18,45.18,0,0,0-502.86,570.27Zm124.48-38.75c0,14.07,0,28.13,0,42.2,0,1.29.32,1.65,1.62,1.62,3.26-.1,6.52-.12,9.77,0,1.47,0,1.68-.45,1.67-1.76,0-10,0-19.9-.06-29.85,0-1.31.35-1.63,1.63-1.61,4.61.08,9.22,0,13.84,0a43.57,43.57,0,0,0,9.53-.73c16.19-3.53,25.56-19.08,20.77-34.53-3.37-10.83-14.31-18.79-26.37-19-10.2-.13-20.41,0-30.62-.09-1.48,0-1.79.41-1.78,1.82C-378.36,503.63-378.38,517.58-378.38,531.52Zm126.27,9.82A30.92,30.92,0,0,0-276.83,540c-6.15,2.16-11.1,5.83-13.25,12.31-3,9.13,1.72,18.76,11,22.7,8.05,3.39,20.36,3,26.26-6.24.08-.12.28-.18.68-.42,0,2,0,3.81,0,5.62,0,.94.23,1.28,1.23,1.26q5.07-.08,10.14,0c1,0,1.26-.26,1.25-1.24,0-11.42.23-22.85-.14-34.26-.29-8.85-4.68-15.56-12.84-19.32a30.88,30.88,0,0,0-25.22-.61,21,21,0,0,0-11.06,9.82c-.53,1-.43,1.42.65,1.83a79.72,79.72,0,0,1,7.63,3.19c1.88,1,3,1,4.19-1.06a7.81,7.81,0,0,1,4.38-3.2,16.47,16.47,0,0,1,14.21,1.1A10.53,10.53,0,0,1-252.11,541.34Zm-300.79,6.12a29.33,29.33,0,0,0-29.9-29.84c-16.85,0-29.86,13-29.87,29.7a29.48,29.48,0,0,0,29.83,29.79A29.44,29.44,0,0,0-552.9,547.46Zm-95-29.84a29.32,29.32,0,0,0-29.91,29.64,29.43,29.43,0,0,0,29.74,29.85,29.4,29.4,0,0,0,30-29.78C-618.12,530.52-631,517.65-647.92,517.62Zm186,30a52.84,52.84,0,0,0,.56,5.67,28.93,28.93,0,0,0,22.08,23.1c11.82,2.7,24.37-2,31-11.4.67-1,.37-1.29-.43-1.8-2.37-1.53-4.78-3-7-4.73-1.47-1.11-2.19-1-3.38.49-7.24,9.21-21,8.59-26.9-1.06-.78-1.28-.52-1.62.76-2.14,11.23-4.58,22.43-9.24,33.63-13.9,1.51-.62,3.86-.78,4.26-2.09s-.93-3-1.57-4.54c-6.23-14.5-20.6-21-34.7-15.82C-454.8,523.48-461.87,534.24-462,547.57Zm253.2,10.19c-.68-1.63-1.15-2.74-1.61-3.86L-224,520.78c-.26-.62-.25-1.46-1.33-1.45-4.34,0-8.68,0-13.24,0,.31.75.52,1.31.76,1.86q10.88,24.7,21.77,49.41a3.7,3.7,0,0,1,0,3.44c-2.46,5.27-4.82,10.58-7.21,15.89-1.76,3.89-3.5,7.78-5.34,11.89,4.1,0,8-.07,11.8,0a2.27,2.27,0,0,0,2.55-1.66q9.06-21,18.24-41.94c5.41-12.4,10.79-24.81,16.25-37.19.65-1.49.4-1.82-1.19-1.77-3.63.1-7.26.09-10.88,0a2.09,2.09,0,0,0-2.39,1.59c-2.37,6.23-4.87,12.42-7.33,18.62Zm-259.53-26.11c0-13.88,0-27.76.05-41.65,0-1.85-.52-2.22-2.23-2.13-2.95.15-5.91.12-8.85,0-1.52-.06-2.06.21-2.05,1.93.1,11.86.05,23.71.05,35.57,0,16,0,32.06,0,48.09,0,1.58.44,1.93,1.93,1.87,2.95-.12,5.91-.14,8.86,0,1.76.09,2.35-.27,2.33-2.23C-468.34,559.29-468.29,545.47-468.29,531.65Zm170.11-.2c0-13.88,0-27.76,0-41.64,0-1.44-.21-2-1.84-1.94-3.13.15-6.27.11-9.4,0-1.39,0-1.84.27-1.84,1.77.07,13.81,0,27.63,0,41.45,0,14.07,0,28.13,0,42.19,0,1.76.52,2.12,2.13,2.05,3-.12,6-.13,9,0,1.52.07,1.94-.32,1.93-1.88C-298.21,559.46-298.18,545.46-298.18,531.45Zm-206.15-86.78c-5.57-8.89-11.19-17.32-16.18-26.1-2.24-4-4.79-5.8-9.22-4.93a1.15,1.15,0,0,1-.37,0c-1-.13-1.37.25-1.37,1.32q.06,20.46,0,40.9c0,1,.23,1.32,1.22,1.27a40,40,0,0,1,4.24,0c1.1.06,1.48-.24,1.46-1.42-.13-9.64.15-19.28-.16-28.92,0-.55-.27-1.17.33-1.77.4.61.74,1.1,1,1.61,5.46,8.73,11.08,17.38,16.28,26.26,1.9,3.25,3.94,4.86,7.76,4.29,1.38-.2,1.79-.42,1.78-1.85-.06-12.46,0-24.93,0-37.4,0-4.3,0-4.3-4.24-4.3-2.56,0-2.56,0-2.56,2.5Zm-222.09-11.4c-6.17,0-11.94,0-17.72,0-1.58,0-3.69-.7-4.61.29s-.18,3.16-.32,4.79c-.1,1.05.27,1.36,1.32,1.34,3.94-.06,7.87,0,11.81,0,2.25,0,2.25,0,1.59,2.21-2.25,7.49-10.41,11.42-18.64,9-8-2.38-12.5-10.45-10.6-19.32,1.21-5.63,4.6-9.64,10.15-11.39,5.34-1.69,10.47-1.1,14.92,2.62,2,1.65,1.92,1.71,3.72-.09,3.42-3.42,3.42-3.42-.67-6.21-7.24-5-18.1-5-25.42-.07a22.78,22.78,0,0,0-9.6,23.8c2.88,13.21,15.84,20.75,29.12,16.94,9.17-2.64,14.85-10.91,14.35-20.87C-727.06,435.34-727.46,434.35-726.42,433.27Zm144.3,2.15c0,12.87,9.65,22.66,22.32,22.66s22.36-9.87,22.36-22.68-9.76-22.66-22.39-22.66S-582.12,422.51-582.12,435.42Zm-138.65-.13c0,6.7,0,13.39,0,20.08,0,1.52.47,1.79,1.85,1.78,6.46-.07,12.91,0,19.37,0,1.58,0,3.74.69,4.59-.32s.17-3,.32-4.62c.12-1.33-.39-1.62-1.65-1.61-5.41.07-10.82,0-16.23.05-1,0-1.38-.26-1.35-1.32.06-3.13.06-6.27,0-9.4,0-1.09.37-1.32,1.38-1.31q5.63.09,11.25,0c1.51,0,3.48.68,4.42-.31s.13-2.93.29-4.44c.14-1.28-.29-1.68-1.61-1.65-4.73.07-9.46,0-14.19.05-1.22,0-1.57-.32-1.54-1.53.09-3.07.07-6.14,0-9.21,0-1.09.37-1.31,1.37-1.3,4.31.05,8.61,0,12.91,0,1.59,0,3.72.69,4.62-.28s.15-3.16.32-4.79c.14-1.29-.41-1.53-1.56-1.52-7.63,0-15.25.06-22.87,0-1.47,0-1.7.49-1.68,1.8C-720.74,422-720.77,428.66-720.77,435.29Zm110.67,3.26c0-5.64,0-11.29,0-16.94,0-1.14.28-1.48,1.42-1.42,1.84.1,3.69.06,5.53,0,1.59,0,3.77.68,4.6-.29s.13-3.05.29-4.63-.45-1.69-1.76-1.68c-7.8.06-15.6,0-23.41.05-1.69,0-4-.79-4.9.36s-.19,3.3-.31,5c-.07,1,.35,1.22,1.27,1.21,2.7-.05,5.41,0,8.11,0s2.4-.32,2.4,2.31q0,16.49,0,33c0,1.24.22,1.79,1.58,1.65a18.85,18.85,0,0,1,3.68,0c1.35.13,1.59-.42,1.57-1.65C-610.13,449.85-610.1,444.2-610.1,438.55Zm-61.95.19c0-5.4.11-10.81-.06-16.22-.06-2,.61-2.45,2.46-2.34,2.51.15,5,0,7.56.07,1.35.05,2.06-.21,1.84-1.76a11.13,11.13,0,0,1,0-2.94c.18-1.49-.29-2-1.87-1.95-7.81.09-15.62,0-23.44.06-1.64,0-3.89-.73-4.76.33s-.17,3.17-.3,4.81c-.08,1.13.23,1.49,1.41,1.45,2.76-.09,5.54.06,8.3-.07,1.62-.07,2.16.31,2.15,2.07-.1,9.89-.07,19.78,0,29.67,0,1.69-.77,4,.33,4.91s3.3.18,5,.31c1.16.09,1.44-.31,1.43-1.44C-672.08,450.05-672,444.39-672,438.74Zm38-3.33c0-5.65,0-11.3,0-17,0-1.53.53-3.57-.24-4.46-.91-1-3-.15-4.58-.38-1.75-.26-2,.53-2,2.05.06,12.1,0,24.2,0,36.3,0,1.64-.55,3.85.28,4.79,1,1.09,3.24.17,4.92.37,1.37.17,1.59-.41,1.58-1.64C-634.1,448.8-634.07,442.1-634.07,435.41Z" transform="translate(1059.67 -365.56)" fill="#100f0d"/><path d="M-989.1,580.19a12.27,12.27,0,0,1-.78-4.87q0-70,0-139.92a12.23,12.23,0,0,1,.75-4.68c2.14,2,4.32,4,6.41,6.09q33.53,33.45,67,66.94c.52.52,1,1.08,1.49,1.63-.47.49-.91,1-1.39,1.46l-70,69.88C-986.72,577.89-987.92,579-989.1,580.19Z" transform="translate(1059.67 -365.56)" fill="#5778c4"/><path d="M-989.1,580.19c1.18-1.16,2.38-2.3,3.55-3.47l70-69.88c.48-.47.92-1,1.39-1.46h.25c.46.5.9,1,1.37,1.49l32.28,32.24c1.6,1.6,3.17,3.23,4.76,4.85-3.75,2.56-7.79,4.65-11.71,6.91q-36,20.82-72.13,41.57c-11.57,6.65-26,1-29.63-11.52A5.67,5.67,0,0,1-989.1,580.19Z" transform="translate(1059.67 -365.56)" fill="#ea3131"/><path d="M-913.95,505.37h-.25c-.5-.55-1-1.11-1.49-1.63q-33.51-33.48-67-66.94c-2.09-2.08-4.27-4.07-6.41-6.09,1.08-6.59,7.32-12.92,14.53-14.62a20.19,20.19,0,0,1,15.27,2.26L-877,466a2.93,2.93,0,0,1,1.31,1l-19.39,19.44Z" transform="translate(1059.67 -365.56)" fill="#3bac49"/><path d="M-913.95,505.37l18.82-19L-875.74,467A9.67,9.67,0,0,1-873,468.4c11.27,6.51,22.56,13,33.79,19.58,13.93,8.19,13.89,27.06-.08,35.21-11.67,6.8-23.41,13.5-35.11,20.24a12.06,12.06,0,0,1-1.16.52c-1.59-1.62-3.16-3.25-4.76-4.85l-32.28-32.24C-913,506.38-913.49,505.87-913.95,505.37Z" transform="translate(1059.67 -365.56)" fill="#f5b50b"/><path d="M-704.13,526.71c6.27,0,12.55.07,18.82,0,1.81,0,2.52.38,2.7,2.3,1.93,19.7-5.69,37.32-25,44.79-17.92,6.91-34.9,4-49.31-8.91-13.59-12.15-18.57-27.72-13.86-45.39s16.68-28.92,34.46-33.32c15.32-3.79,29.21-.37,41.22,10.08,1,.88,1.31,1.41.14,2.47-2.27,2.07-4.43,4.26-6.52,6.52-.93,1-1.46,1-2.49.1a33.11,33.11,0,0,0-40.47-2,34,34,0,0,0-13.24,35.78,32.67,32.67,0,0,0,27.55,25.05c10.13,1.36,19.41-.84,27.14-8.05,4.55-4.24,6.57-9.64,7.59-15.57.24-1.4-.7-1.12-1.45-1.12-8.92,0-17.84,0-26.76,0-1.51,0-2-.36-1.93-1.91.12-3,.13-6,0-9-.06-1.53.5-1.79,1.88-1.78C-717.17,526.75-710.65,526.71-704.13,526.71Z" transform="translate(1059.67 -365.56)" fill="#fcfcfc"/><path d="M-502.86,570.27a45.18,45.18,0,0,1-3.69,3.05c-7.44,4.92-15.28,4.82-23.19,1.39a29.82,29.82,0,0,1-17.54-30.44c1.69-13.52,11.17-24,24.19-26.26,7.27-1.27,13.93.32,19.35,5.69a3.18,3.18,0,0,0,.6.41s.1,0,.4-.08c0-1.08,0-2.21,0-3.35,0-.87.1-1.34,1.17-1.32,3.38.07,6.77,0,10.15,0,.8,0,1.13.27,1.06,1.06,0,.3,0,.61,0,.92q0,25.26,0,50.51a43.71,43.71,0,0,1-1.72,13.46c-3.6,11.16-11.5,17-23,18.31a28.66,28.66,0,0,1-29.15-15.55c-.81-1.57-.49-2.13,1-2.69,2.65-1,5.25-2.08,7.82-3.23,1.17-.52,1.75-.55,2.47.82,3.83,7.39,11.24,10.58,19.24,8.48,5.75-1.51,9.67-6.19,10.55-12.61A39.32,39.32,0,0,0-502.86,570.27Zm.95-23.36a16.12,16.12,0,0,0-.45-4.1c-1.61-6.56-5.22-11.46-12-13-6.54-1.52-12,.79-16.11,6a19.5,19.5,0,0,0,0,23.17c6.52,8.52,19,8.54,25.15,0A19.3,19.3,0,0,0-501.91,546.91Z" transform="translate(1059.67 -365.56)" fill="#fcfcfc"/><path d="M-378.38,531.52c0-13.94,0-27.89,0-41.83,0-1.41.3-1.83,1.78-1.82,10.21.08,20.42,0,30.62.09,12.06.16,23,8.12,26.37,19,4.79,15.45-4.58,31-20.77,34.53a43.57,43.57,0,0,1-9.53.73c-4.62,0-9.23,0-13.84,0-1.28,0-1.64.3-1.63,1.61.06,10,0,19.9.06,29.85,0,1.31-.2,1.81-1.67,1.76-3.25-.13-6.51-.11-9.77,0-1.3,0-1.63-.33-1.62-1.62C-378.36,559.65-378.38,545.59-378.38,531.52Zm13-16.46c0,4.54,0,9.09,0,13.63,0,1,.27,1.34,1.32,1.33,6,0,12.05.07,18.07-.06a15,15,0,0,0,14.22-17.69A14.91,14.91,0,0,0-346,500.13c-6-.12-11.93,0-17.89-.08-1.28,0-1.48.43-1.47,1.56C-365.34,506.09-365.38,510.58-365.38,515.06Z" transform="translate(1059.67 -365.56)" fill="#fdfdfd"/><path d="M-252.11,541.34a10.53,10.53,0,0,0-5.59-9.9,16.47,16.47,0,0,0-14.21-1.1,7.81,7.81,0,0,0-4.38,3.2c-1.16,2-2.31,2-4.19,1.06a79.72,79.72,0,0,0-7.63-3.19c-1.08-.41-1.18-.83-.65-1.83a21,21,0,0,1,11.06-9.82,30.88,30.88,0,0,1,25.22.61c8.16,3.76,12.55,10.47,12.84,19.32.37,11.41.1,22.84.14,34.26,0,1-.29,1.26-1.25,1.24q-5.07-.08-10.14,0c-1,0-1.26-.32-1.23-1.26.07-1.81,0-3.62,0-5.62-.4.24-.6.3-.68.42C-258.68,578-271,578.36-279,575c-9.32-3.94-14.07-13.57-11-22.7,2.15-6.48,7.1-10.15,13.25-12.31A30.92,30.92,0,0,1-252.11,541.34Zm-15.86,24a16.06,16.06,0,0,0,15.66-12.62c.21-1-.12-1.35-.94-1.77a24.15,24.15,0,0,0-14.34-2.1,13.43,13.43,0,0,0-7.94,3.49c-3.83,3.74-3,9.19,1.81,11.59A14.12,14.12,0,0,0-268,565.37Z" transform="translate(1059.67 -365.56)" fill="#fcfcfc"/><path d="M-552.9,547.46a29.44,29.44,0,0,1-29.94,29.65,29.48,29.48,0,0,1-29.83-29.79c0-16.74,13-29.68,29.87-29.7A29.33,29.33,0,0,1-552.9,547.46Zm-46.64.13c0,.63.06,1.43.13,2.23,1.17,12.86,15.52,19.92,25.86,12.63,6.33-4.46,8.26-10.89,7.32-18.3a16.71,16.71,0,0,0-19.18-14.56C-593.62,530.77-599.58,538.3-599.54,547.59Z" transform="translate(1059.67 -365.56)" fill="#fcfcfc"/><path d="M-647.92,517.62c16.89,0,29.8,12.9,29.82,29.71a29.4,29.4,0,0,1-30,29.78,29.43,29.43,0,0,1-29.74-29.85A29.32,29.32,0,0,1-647.92,517.62ZM-631.16,547a14.57,14.57,0,0,0-.37-3.53A16.72,16.72,0,0,0-652.68,530c-8,2.36-13.29,11.14-11.92,19.88,1.41,8.94,7.81,15.15,15.9,15.45C-638.89,565.71-631.15,557.76-631.16,547Z" transform="translate(1059.67 -365.56)" fill="#fcfcfc"/><path d="M-462,547.57c.09-13.33,7.16-24.09,18.31-28.22,14.1-5.23,28.47,1.32,34.7,15.82.64,1.51,1.95,3.3,1.57,4.54s-2.75,1.47-4.26,2.09c-11.2,4.66-22.4,9.32-33.63,13.9-1.28.52-1.54.86-.76,2.14,5.88,9.65,19.66,10.27,26.9,1.06,1.19-1.52,1.91-1.6,3.38-.49,2.24,1.71,4.65,3.2,7,4.73.8.51,1.1.84.43,1.8-6.65,9.45-19.2,14.1-31,11.4a28.93,28.93,0,0,1-22.08-23.1A52.84,52.84,0,0,1-462,547.57Zm29.58-18.41c-9.29,0-16.71,7.58-16.6,16,0,1.63.84.9,1.5.63,7.92-3.28,15.82-6.62,23.77-9.83,1.46-.58,1.23-1.14.55-2.08A11.59,11.59,0,0,0-432.38,529.16Z" transform="translate(1059.67 -365.56)" fill="#fcfcfc"/><path d="M-208.76,557.76l7.22-18.24c2.46-6.2,5-12.39,7.33-18.62a2.09,2.09,0,0,1,2.39-1.59c3.62.09,7.25.1,10.88,0,1.59,0,1.84.28,1.19,1.77-5.46,12.38-10.84,24.79-16.25,37.19q-9.13,21-18.24,41.94a2.27,2.27,0,0,1-2.55,1.66c-3.85-.11-7.7,0-11.8,0,1.84-4.11,3.58-8,5.34-11.89,2.39-5.31,4.75-10.62,7.21-15.89a3.7,3.7,0,0,0,0-3.44q-10.92-24.69-21.77-49.41c-.24-.55-.45-1.11-.76-1.86,4.56,0,8.9,0,13.24,0,1.08,0,1.07.83,1.33,1.45l13.61,33.12C-209.91,555-209.44,556.13-208.76,557.76Z" transform="translate(1059.67 -365.56)" fill="#fcfcfc"/><path d="M-468.29,531.65c0,13.82,0,27.64.05,41.46,0,2-.57,2.32-2.33,2.23-2.95-.14-5.91-.12-8.86,0-1.49.06-1.94-.29-1.93-1.87.07-16,0-32.06,0-48.09,0-11.86.05-23.71-.05-35.57,0-1.72.53-2,2.05-1.93,2.94.11,5.9.14,8.85,0,1.71-.09,2.24.28,2.23,2.13C-468.33,503.89-468.29,517.77-468.29,531.65Z" transform="translate(1059.67 -365.56)" fill="#fefefe"/><path d="M-298.18,531.45c0,14,0,28,0,42,0,1.56-.41,1.95-1.93,1.88-3-.13-6-.12-9,0-1.61.07-2.14-.29-2.13-2.05.08-14.06,0-28.12,0-42.19,0-13.82,0-27.64,0-41.45,0-1.5.45-1.81,1.84-1.77,3.13.1,6.27.14,9.4,0,1.63-.08,1.85.5,1.84,1.94C-298.2,503.69-298.18,517.57-298.18,531.45Z" transform="translate(1059.67 -365.56)" fill="#fefefe"/><path d="M-504.33,444.67V416.14c0-2.5,0-2.5,2.56-2.5,4.24,0,4.24,0,4.24,4.3,0,12.47,0,24.94,0,37.4,0,1.43-.4,1.65-1.78,1.85-3.82.57-5.86-1-7.76-4.29-5.2-8.88-10.82-17.53-16.28-26.26-.31-.51-.65-1-1-1.61-.6.6-.35,1.22-.33,1.77.31,9.64,0,19.28.16,28.92,0,1.18-.36,1.48-1.46,1.42a40,40,0,0,0-4.24,0c-1,.05-1.23-.31-1.22-1.27q0-20.44,0-40.9c0-1.07.36-1.45,1.37-1.32a1.15,1.15,0,0,0,.37,0c4.43-.87,7,1,9.22,4.93C-515.52,427.35-509.9,435.78-504.33,444.67Z" transform="translate(1059.67 -365.56)" fill="#fbfbfb"/><path d="M-726.42,433.27c-1,1.08-.64,2.07-.6,3,.5,10-5.18,18.23-14.35,20.87-13.28,3.81-26.24-3.73-29.12-16.94a22.78,22.78,0,0,1,9.6-23.8c7.32-4.91,18.18-4.88,25.42.07,4.09,2.79,4.09,2.79.67,6.21-1.8,1.8-1.75,1.74-3.72.09-4.45-3.72-9.58-4.31-14.92-2.62-5.55,1.75-8.94,5.76-10.15,11.39-1.9,8.87,2.62,16.94,10.6,19.32,8.23,2.45,16.39-1.48,18.64-9,.66-2.21.66-2.21-1.59-2.21-3.94,0-7.87,0-11.81,0-1,0-1.42-.29-1.32-1.34.14-1.63-.67-3.73.32-4.79s3-.28,4.61-.29C-738.36,433.25-732.59,433.27-726.42,433.27Z" transform="translate(1059.67 -365.56)" fill="#fbfbfb"/><path d="M-582.12,435.42c0-12.91,9.6-22.67,22.29-22.68s22.39,9.88,22.39,22.66-9.73,22.69-22.36,22.68S-582.11,448.29-582.12,435.42Zm6.93,0c0,5.87,2.19,10.65,7.27,13.83a15.47,15.47,0,0,0,21.18-4.92c4.68-7.49,2.39-18.32-5-22.77a14.9,14.9,0,0,0-15.61-.35C-572.85,424.24-575.17,429.26-575.19,435.43Z" transform="translate(1059.67 -365.56)" fill="#fbfbfb"/><path d="M-720.77,435.29c0-6.63,0-13.26,0-19.89,0-1.31.21-1.81,1.68-1.8,7.62.08,15.24.06,22.87,0,1.15,0,1.7.23,1.56,1.52-.17,1.63.65,3.75-.32,4.79s-3,.27-4.62.28c-4.3,0-8.6,0-12.91,0-1,0-1.4.21-1.37,1.3.06,3.07.08,6.14,0,9.21,0,1.21.32,1.55,1.54,1.53,4.73-.07,9.46,0,14.19-.05,1.32,0,1.75.37,1.61,1.65-.16,1.51.63,3.47-.29,4.44s-2.91.29-4.42.31q-5.62.07-11.25,0c-1,0-1.4.22-1.38,1.31.07,3.13.07,6.27,0,9.4,0,1.06.32,1.33,1.35,1.32,5.41,0,10.82,0,16.23-.05,1.26,0,1.77.28,1.65,1.61-.15,1.58.48,3.67-.32,4.62s-3,.31-4.59.32c-6.46,0-12.91,0-19.37,0-1.38,0-1.88-.26-1.85-1.78C-720.72,448.68-720.77,442-720.77,435.29Z" transform="translate(1059.67 -365.56)" fill="#f9f9f9"/><path d="M-610.1,438.55c0,5.65,0,11.3,0,16.94,0,1.23-.22,1.78-1.57,1.65a18.85,18.85,0,0,0-3.68,0c-1.36.14-1.59-.41-1.58-1.65q.06-16.47,0-33c0-2.63.26-2.29-2.4-2.31s-5.41,0-8.11,0c-.92,0-1.34-.18-1.27-1.21.12-1.71-.54-3.93.31-5s3.21-.35,4.9-.36c7.81,0,15.61,0,23.41-.05,1.31,0,1.91.21,1.76,1.68s.51,3.7-.29,4.63-3,.25-4.6.29c-1.84,0-3.69.08-5.53,0-1.14-.06-1.44.28-1.42,1.42C-610.06,427.26-610.1,432.91-610.1,438.55Z" transform="translate(1059.67 -365.56)" fill="#fbfbfb"/><path d="M-672,438.74c0,5.65,0,11.31,0,17,0,1.13-.27,1.53-1.43,1.44-1.71-.13-3.95.54-5-.31s-.33-3.22-.33-4.91c0-9.89-.07-19.78,0-29.67,0-1.76-.53-2.14-2.15-2.07-2.76.13-5.54,0-8.3.07-1.18,0-1.49-.32-1.41-1.45.13-1.64-.52-3.81.3-4.81s3.12-.32,4.76-.33c7.82,0,15.63,0,23.44-.06,1.58,0,2,.46,1.87,1.95a11.13,11.13,0,0,0,0,2.94c.22,1.55-.49,1.81-1.84,1.76-2.52-.1-5,.08-7.56-.07-1.85-.11-2.52.32-2.46,2.34C-671.94,427.93-672,433.34-672,438.74Z" transform="translate(1059.67 -365.56)" fill="#fbfbfb"/><path d="M-634.07,435.41c0,6.69,0,13.39,0,20.08,0,1.23-.21,1.81-1.58,1.64-1.68-.2-3.94.72-4.92-.37-.83-.94-.28-3.15-.28-4.79,0-12.1,0-24.2,0-36.3,0-1.52.21-2.31,2-2.05,1.56.23,3.67-.66,4.58.38.77.89.24,2.93.24,4.46C-634.06,424.11-634.07,429.76-634.07,435.41Z" transform="translate(1059.67 -365.56)" fill="#fdfdfd"/><path d="M-501.91,546.91a19.3,19.3,0,0,1-3.5,12.06c-6.18,8.54-18.63,8.52-25.15,0a19.5,19.5,0,0,1,0-23.17c4.11-5.23,9.57-7.54,16.11-6,6.82,1.57,10.43,6.47,12,13A16.12,16.12,0,0,1-501.91,546.91Z" transform="translate(1059.67 -365.56)" fill="#11100e"/><path d="M-365.38,515.06c0-4.48,0-9,0-13.45,0-1.13.19-1.58,1.47-1.56,6,.08,11.93,0,17.89.08a14.91,14.91,0,0,1,14.25,12.14A15,15,0,0,1-346,530c-6,.13-12,0-18.07.06-1.05,0-1.33-.3-1.32-1.33C-365.35,524.15-365.38,519.6-365.38,515.06Z" transform="translate(1059.67 -365.56)" fill="#11100e"/><path d="M-268,565.37a14.12,14.12,0,0,1-5.75-1.41c-4.78-2.4-5.64-7.85-1.81-11.59a13.43,13.43,0,0,1,7.94-3.49,24.15,24.15,0,0,1,14.34,2.1c.82.42,1.15.74.94,1.77A16.06,16.06,0,0,1-268,565.37Z" transform="translate(1059.67 -365.56)" fill="#11100e"/><path d="M-599.54,547.59c0-9.29,5.92-16.82,14.13-18a16.71,16.71,0,0,1,19.18,14.56c.94,7.41-1,13.84-7.32,18.3-10.34,7.29-24.69.23-25.86-12.63C-599.48,549-599.5,548.22-599.54,547.59Z" transform="translate(1059.67 -365.56)" fill="#11100e"/><path d="M-631.16,547c0,10.73-7.73,18.68-17.54,18.33-8.09-.3-14.49-6.51-15.9-15.45-1.37-8.74,3.88-17.52,11.92-19.88a16.72,16.72,0,0,1,21.15,13.47A14.57,14.57,0,0,1-631.16,547Z" transform="translate(1059.67 -365.56)" fill="#11100e"/><path d="M-432.38,529.16a11.59,11.59,0,0,1,9.22,4.76c.68.94.91,1.5-.55,2.08-8,3.21-15.85,6.55-23.77,9.83-.66.27-1.47,1-1.5-.63C-449.09,536.74-441.67,529.14-432.38,529.16Z" transform="translate(1059.67 -365.56)" fill="#11100e"/><path d="M-575.2,435.43c0-6.17,2.35-11.19,7.88-14.21a14.9,14.9,0,0,1,15.61.35c7.36,4.45,9.65,15.28,5,22.77a15.47,15.47,0,0,1-21.18,4.92C-573,446.08-575.16,441.3-575.2,435.43Z" transform="translate(1059.67 -365.56)" fill="#11100e"/></svg>