<svg id="Livello_1" data-name="Livello 1" xmlns="http://www.w3.org/2000/svg" viewBox="0 0 522.58 285.23"><path d="M397.8,292.8c-28.14-.11-50-21.53-49.91-49s23.38-50.71,50.67-50.38c27.55.34,50.13,23.57,49.72,51.18C447.88,271.83,425.79,292.91,397.8,292.8Zm.49-69.33c-11.12,0-19.4,8.64-19.27,20.16.12,11.76,8.12,19.45,20,19.1,12.13-.35,18.16-7.44,18.95-18.76C418.64,233.71,408.27,223.49,398.29,223.47Z" transform="translate(-138.71 -7.57)" fill="#ae978c"/><path d="M506.32,292.79c-28.57.18-51.56-22-51.14-49.26.41-26.64,23.24-49.68,49.61-50.09,27.29-.42,50.51,22.39,50.95,50.06C556.18,270.43,533.93,292.62,506.32,292.79Zm19.12-49c.3-10.2-9.5-20.79-19.76-20.11-11.21.74-18.42,6.7-19,18.73-.56,12.19,6.51,19.88,18.51,20.27S525.09,255.58,525.44,243.8Z" transform="translate(-138.71 -7.57)" fill="#ae988c"/><path d="M376.57,142.23c-20.35,4.94-39.79,4.53-55.89-11.1-16.83-16.34-19.93-39.61-8.65-60.45,10.69-19.74,33.17-29.34,56.12-24,21.56,5.06,35.83,23.71,37,48.4l-28.45-.63c-1.16-2.68-2.18-5.44-3.52-8-5.19-10.12-14.06-12.24-24-9.63s-14.59,10.73-13.59,20.45,7.85,15.9,17.66,17.64c9,1.59,14.68-4.71,20.87-9.58,4.31,10.26-.27,21.4,3.15,31.74C377.06,138.79,376.82,140.51,376.57,142.23Z" transform="translate(-138.71 -7.57)" fill="#ae978c"/><path d="M514.44,75.09c0,5.45-.05,10.9.14,16.34,1,28.63-18,51.36-44.87,53.64-26.16,2.23-50.12-17.09-53.81-43.39s13.65-49.81,40.83-55.56c3.35-.71,6.81-.84,10.22-1.24-5.26,9.53-2,20-3.42,30-3.16,1.33-6.87,2-9.39,4.1-8.49,7.08-12.07,16-5.54,26,6,9.27,14.68,13.56,25.39,7.79,10.94-5.89,13-15.46,8.78-26.54-1.19-3.15-3.45-5.89-5.22-8.82,9.93-3.84,21,1.84,30.75-3.7Z" transform="translate(-138.71 -7.57)" fill="#ac968b"/><path d="M621.84,145.19a50,50,0,0,1-46.45-33.91c-6.71-20.12-.13-42.63,16.14-55.18,17.9-13.81,40.43-15.22,58.36-2.73,5.08,3.53,15.56,8.14,9.64,15.16C654,75.14,647,86,633.52,79.25c-14.89-7.46-27.83-1.32-29.76,12.8-2.15,15.75,12.44,28,26.61,20.52,15-7.95,20.72,4.44,29.1,10.48,4.41,3.19-.52,7-3.2,9.72C649.13,139.89,633.58,145.38,621.84,145.19Z" transform="translate(-138.71 -7.57)" fill="#af988d"/><path d="M257.86,90.68c-7.08,12.21-14.56,24.25-21.09,36.7-4,7.59-9.11,10.71-18.65,10.62-9.16-.08-13.29-3.66-17-10.57-6.64-12.39-14.25-24.35-21.45-36.49L174.36,76.6c3.75-16.86.63-33.94,2-50.87,17.13,20.45,25.42,45.76,43,67.58,14.2-23,27.68-44.92,41.17-66.81q.69,27.81,1.36,55.61Q259.86,86.4,257.86,90.68Z" transform="translate(-138.71 -7.57)" fill="#0c0b0b"/><path d="M174.36,76.6l5.32,14.34c-5,20.21-3.09,40.76-3,61.17,0,9-4.4,12.25-12.74,10.39-8-1.78-22.54,7.13-22.83-8.29-.75-40.4,0-80.83.31-121.25,0-.84,1.09-1.66,1.67-2.49C156,44.39,160.29,63.31,174.36,76.6Z" transform="translate(-138.71 -7.57)" fill="#af988e"/><path d="M265.56,262.29c0-25.12.54-50.26-.36-75.36-.41-11.67,9.29-9,17.68-9.32,8.8-.3,16.27-.82,15.89,9.48-.9,24.72-.28,49.48-.28,74.22l.88.61-.56.8Z" transform="translate(-138.71 -7.57)" fill="#ac968b"/><path d="M257.86,90.68q2-4.29,4-8.57c12.92-14.94,16.7-34.95,31.84-48.66,3.71,3.2,2.51,7.41,2.52,11.26.07,35.34-.54,70.69.3,106,.33,13.91-8.72,12.16-17.9,12-8.72-.19-18.23,2.71-18.36-11.56C260.07,131,264.27,110.61,257.86,90.68Z" transform="translate(-138.71 -7.57)" fill="#ae988c"/><path d="M598.75,187.69c16.1-23.21,35.31-33.26,61.46-24.1-16,17.84-30.52,35.17-46,50.88-8.7,8.85-9.31,14.22-.31,23.4,15.41,15.73,30,32.92,47.25,52.05-20.7,2.23-38.53,7.25-52.92-14.49-3.57-5.39-8.56-9.05-12.9-13.5l-1.89-4.68c2.71-21,.81-42.23,1.13-63.35Q596.67,190.8,598.75,187.69Z" transform="translate(-138.71 -7.57)" fill="#0e0e0e"/><path d="M532.94,95.89c0-11.46.83-23-.18-34.36C531.52,47.6,539,46.88,549.93,46.44c12.19-.49,15.3,3.81,14.89,15.38-.81,22.89-.91,45.85,0,68.73.57,13.67-7.58,12.22-16.25,12.37-9,.15-17.06.68-15.88-12.67C533.72,118.88,532.92,107.35,532.94,95.89Z" transform="translate(-138.71 -7.57)" fill="#b09a8f"/><path d="M598.75,203.06l-4.13,3.24c-11,2.85-16.39,11.63-28.28,13.56-3.33-19.7-.88-39.48-1.33-59.21-.2-8.67,9.67-6.11,16.45-6.51,7.65-.46,13.88.23,13.56,7.59-.47,10.59-.26,21.2,0,31.8C595.06,196.84,593.09,200.77,598.75,203.06Z" transform="translate(-138.71 -7.57)" fill="#ac968b"/><path d="M465.27,185.5c-3.52-.21-9.06-.1-14.45-.95-20.29-3.19-22.14-7.69-12.24-26,2.94-5.46,6.28-7.08,12-5.39,10.28,3.07,20.59,2.68,31,.19,16.17-3.87,13.86,10.81,17.51,18.58,4.13,8.82-4.25,9.08-9.61,11C482.22,185.53,474.7,185.11,465.27,185.5Z" transform="translate(-138.71 -7.57)" fill="#6a3c3b"/><path d="M298.49,260.88c12.71.2,25.45,1.13,38.12.34,9.91-.61,8.71,7.06,8.3,14.34-.38,6.86,3.36,16.85-8,16.15-12.69-.78-25.43-.39-38.14-.52l0-28.47.45-1Z" transform="translate(-138.71 -7.57)" fill="#050404"/><path d="M463.53,74.89c1.41-10-1.84-20.48,3.42-30,4.81,0,9.71-1.86,14.39.71,8.88,9.49,23.67,13.32,27,28.16-9.73,5.54-20.82-.14-30.75,3.7Z" transform="translate(-138.71 -7.57)" fill="#6b3f3d"/><path d="M593.49,257.25l1.89,4.68c-.15,4-.8,8.12-.37,12,1.87,16.61-4.8,18.58-14.8,18.11-9.11-.44-16.87.21-15.53-17.41,1.11-14.59.83-29.37,1.17-44.07Z" transform="translate(-138.71 -7.57)" fill="#ae978c"/><path d="M565.61,23.81c-.91,10.34-5.89,17-16.73,17.14-10,.11-16-5.71-16.58-15.46-.63-10.46,5-17.3,15.64-17.89S564.1,13.55,565.61,23.81Z" transform="translate(-138.71 -7.57)" fill="#0e0e0e"/><path d="M293.7,33.45c-15.14,13.71-18.92,33.72-31.84,48.66q-.67-27.79-1.36-55.61c9.4-6.62,20.11-2.85,30.12-2.55C296.67,24.14,293.94,29.84,293.7,33.45Z" transform="translate(-138.71 -7.57)" fill="#6a3c3b"/><path d="M298.81,262.72q0,14.23,0,28.47a31.9,31.9,0,0,1-5.76.79c-31.11-1.27-29,8.37-27.53-29.82Z" transform="translate(-138.71 -7.57)" fill="#6b3f3d"/><path d="M377.3,137.07c-3.42-10.34,1.16-21.48-3.15-31.74q1.31-5.42,2.59-10.84l28.45.63c1,5.88,1.74,11.75-.06,17.62C394.64,119.46,392.71,136,377.3,137.07Z" transform="translate(-138.71 -7.57)" fill="#6b3f3d"/><path d="M174.36,76.6C160.29,63.31,156,44.39,143.06,30.47c-.82-3.93-.18-7.29,5.12-7.14,9.44.25,19.23-2.6,28.2,2.4C175,42.66,178.11,59.74,174.36,76.6Z" transform="translate(-138.71 -7.57)" fill="#6a3c3b"/><path d="M593.49,257.25l-27.64-26.68c.16-3.57.33-7.14.49-10.71,11.89-3.7,17.26-20.51,28.28-26C594.3,215,596.2,236.21,593.49,257.25Z" transform="translate(-138.71 -7.57)" fill="#6a3c3b"/><path d="M508.3,73.75c-3.29-14.84-18.08-18.67-27-28.16,5.35-.23,10.7-.63,16.05-.66,22.26-.1,27.1,8.53,17.05,30.16Z" transform="translate(-138.71 -7.57)" fill="#0c0b0b"/><path d="M377.3,137.07c15.41-1.1,17.34-17.61,27.83-24.33a8.07,8.07,0,0,1,.26,1.44c-.19,32.95,7.09,29.24-28.82,28C376.82,140.51,377.06,138.79,377.3,137.07Z" transform="translate(-138.71 -7.57)" fill="#0c0b0b"/><path d="M181.48,279.41c-13,.9-25.64-1.31-38-5.45-3.32-1.11-3.29-2.36-1.56-4.79,2.57-3.61,6.09-4.63,10.2-3.89,11,2,21,0,30-6.92,1.56-1.19,3.26-2.68,5-.12a1.24,1.24,0,0,0,1.85.45,1.51,1.51,0,0,0,.15-2c-.53-1-1.2-2,0-3s2.34-.54,3.41.36c.66.55,1.44,1.09,2.28.41s.36-1.32-.12-1.86c-.86-1-1.3-1.85-.06-2.89s2.2-1.31,3.44-.26c.76.64,1.59,1.57,2.59.69s-.09-1.77-.59-2.54c-.73-1.14-.25-1.82.71-2.48a2.09,2.09,0,0,1,3,.34c.77.79,1.58,2.15,2.8,1.29s.11-2.07-.44-3c-.72-1.19-.71-2,.5-2.9s2.28-.64,3.37.42c2.26,2.19,4.6,4.29,6.94,6.39,6.23,5.61,13.39,7.49,21.5,5.16,4-1.15,8-2.39,11.88-3.72,1.88-.64,3.28-.63,4.3,1.37,3.17,6.26,4.92,12.77,4,19.88-.36,2.86-1.44,4.15-4.63,4.09-6.73-.12-13.46.43-20.19.35-13.12-.16-25.74,3.61-38.7,4.55C190.67,279.69,186.06,279.41,181.48,279.41Z" transform="translate(-138.71 -7.57)" fill="#6a3c3b"/><path d="M138.71,278.9c6.81,1,13.22,3.41,19.94,4.58a129.65,129.65,0,0,0,39.36.78c18.87-2.54,37.72-4.46,56.76-4.58,2.54,0,4.47-.1,4.29,3.43-.15,3.07-.39,5.29-4.36,5.21-8.88-.17-17.77-.06-26.66,0a5.79,5.79,0,0,1-4-1.2c-3.41-2.92-7.17-2.52-11.31-1.85-19.13,3.12-38.34,5-57.58,1.1C149.22,285.12,143.42,283.19,138.71,278.9Z" transform="translate(-138.71 -7.57)" fill="#0e0e0e"/><path d="M219.83,202.44c11.2-6.75,20.25-15.78,28-26.26,2.09-2.81,1.34-3.82-1.47-4.82-4.17-1.48-7.64-.3-10.59,2.66-7.88,7.93-17.26,12-28.54,11.54-2-.08-4.21-.33-4.18,2.79,0,.72-.4,1.49-1.26,1.43s-1.16-.77-1.26-1.52c-.15-1.15-.16-2.33-1.75-2.49s-2.22.9-2.58,2.24c-.23.84-.56,1.72-1.64,1.65s-1.05-.87-1-1.59c.15-1.3,0-2.27-1.6-2.41-1.45-.12-2.56.2-3,1.77-.26.95-.4,2.2-1.73,2s-.94-1.5-1-2.42c-.06-1.34-.84-1.63-2-1.62a2.1,2.1,0,0,0-2.3,2c-.18,1.1-.06,2.67-1.56,2.67s-1.27-1.64-1.34-2.69c-.09-1.39-.58-2.08-2.07-2.09s-2.23.79-2.52,2.28c-.59,3.09-1.31,6.16-2,9.22-1.89,8.17-6.67,13.81-14.66,16.56q-5.88,2-11.86,3.76c-1.9.56-3.05,1.36-2.73,3.59,1,6.95,3.29,13.29,8.09,18.6,1.94,2.14,3.56,2.57,6.14.69,5.44-3.95,11.28-7.36,16.74-11.29,10.65-7.65,23.15-11.81,34.31-18.47C212.47,207.94,216.08,205.07,219.83,202.44Z" transform="translate(-138.71 -7.57)" fill="#ac968b"/><path d="M254.58,177.49c-5,4.75-8.87,10.37-13.71,15.19a129.39,129.39,0,0,1-31.8,23.21c-16.91,8.74-33.46,18-49.12,28.81-2.09,1.44-3.72,2.48-1.55,5.27,1.89,2.42,3.35,4.1,6.57,1.76,7.17-5.23,14.51-10.24,21.8-15.32a5.77,5.77,0,0,0,2.61-3.29c1.11-4.34,4.42-6.17,8.2-8,17.45-8.41,34.29-17.88,47.8-32.13C249.53,188.61,253.17,183.7,254.58,177.49Z" transform="translate(-138.71 -7.57)" fill="#0e0e0e"/></svg>
