<?xml version="1.0" standalone="no"?>
<!DOCTYPE svg PUBLIC "-//W3C//DTD SVG 20010904//EN"
 "http://www.w3.org/TR/2001/REC-SVG-20010904/DTD/svg10.dtd">
<svg version="1.0" xmlns="http://www.w3.org/2000/svg"
 width="278.000000pt" height="86.000000pt" viewBox="0 0 278.000000 86.000000"
 preserveAspectRatio="xMidYMid meet">

<g transform="translate(0.000000,86.000000) scale(0.100000,-0.100000)"
fill="#b02418" stroke="none">
<path d="M2252 626 c-38 -39 -65 -76 -68 -95 -4 -17 -14 -33 -25 -36 -21 -7
-49 -54 -49 -83 0 -49 73 -92 155 -92 17 0 25 -5 23 -12 -3 -8 -32 -15 -73
-19 -58 -5 -72 -10 -92 -33 -28 -33 -29 -60 -4 -85 34 -34 84 -36 172 -8 77
26 79 26 124 9 45 -16 46 -16 91 8 59 32 131 94 149 131 8 15 15 48 15 72 0
79 -55 124 -166 135 l-64 7 40 65 c21 36 39 68 40 73 0 13 -23 7 -35 -9 -11
-15 -17 -15 -81 6 -38 13 -74 25 -80 27 -5 2 -38 -25 -72 -61z m143 -32 c39
-16 43 -29 19 -62 -13 -19 -24 -22 -83 -22 -77 0 -94 11 -89 57 6 52 67 63
153 27z m-191 -139 c13 -10 44 -15 88 -15 66 0 68 -1 58 -20 -9 -17 -21 -20
-80 -20 -56 0 -74 4 -90 20 -11 11 -17 26 -14 35 7 18 14 18 38 0z m340 -19
c85 -35 88 -138 6 -196 -24 -17 -36 -20 -58 -12 l-27 9 42 21 c69 36 85 93 36
132 -25 19 -37 22 -100 18 -66 -5 -71 -4 -63 13 6 9 15 20 22 22 26 11 110 7
142 -7z m-47 -112 c8 -21 -5 -41 -38 -61 -24 -15 -32 -14 -93 2 -64 17 -66 19
-53 39 10 15 29 23 63 27 93 11 114 10 121 -7z m-218 -110 c41 -9 39 -21 -6
-33 -76 -21 -142 -9 -130 23 7 17 75 22 136 10z"/>
<path d="M182 660 c-40 -24 -34 -43 8 -29 21 8 36 7 57 -3 23 -11 29 -20 31
-56 3 -42 3 -42 -62 -84 -36 -23 -66 -45 -66 -50 0 -4 21 -18 46 -30 51 -23
84 -67 84 -110 0 -23 -7 -31 -49 -48 -52 -23 -117 -82 -107 -98 4 -7 23 -2 49
13 23 12 56 25 74 28 l32 6 3 -72 3 -72 68 -3 67 -3 0 71 c0 47 4 70 12 70 6
0 38 -7 70 -16 l58 -17 56 48 55 48 -3 153 -3 153 -44 45 c-24 24 -58 52 -76
61 -31 18 -32 17 -71 -9 -48 -32 -54 -32 -54 -1 0 14 -4 25 -10 25 -5 0 -10
-15 -10 -33 0 -30 -14 -57 -31 -57 -3 0 -9 13 -12 30 -12 57 -110 79 -175 40z
m333 -66 c77 -51 97 -101 50 -122 -36 -17 -97 -15 -123 4 -41 28 -23 144 22
144 6 0 29 -12 51 -26z m-115 -269 c0 -211 -2 -245 -15 -245 -13 0 -15 33 -15
238 0 131 3 242 7 245 20 20 23 -14 23 -238z m-120 140 c0 -39 -5 -42 -35 -19
-20 15 -20 15 5 34 14 11 26 20 28 20 1 0 2 -16 2 -35z m225 -30 c22 0 50 4
63 8 20 8 22 6 22 -33 0 -39 -1 -40 -27 -33 -35 10 -80 9 -115 -1 -27 -8 -28
-7 -28 34 0 39 1 41 23 33 12 -4 40 -8 62 -8z m60 -87 c22 -10 25 -17 25 -66
0 -52 -1 -54 -22 -47 -13 4 -51 14 -86 23 -61 16 -63 17 -60 46 5 49 80 73
143 44z"/>
<path d="M826 633 c-4 -16 -9 -36 -12 -45 -9 -31 14 -19 41 19 31 46 31 53 1
53 -18 0 -25 -7 -30 -27z"/>
<path d="M1943 578 c8 -92 29 -163 47 -163 18 0 38 67 46 161 l7 74 -53 0 -53
0 6 -72z"/>
<path d="M772 510 c-29 -24 -31 -29 -17 -40 12 -10 15 -38 15 -139 0 -98 3
-132 16 -149 20 -28 28 -28 75 5 44 32 50 48 14 39 l-25 -6 0 118 c0 77 4 122
12 130 9 9 7 16 -8 33 -34 37 -47 39 -82 9z"/>
<path d="M962 512 c-35 -30 -42 -51 -14 -48 15 1 17 -11 20 -106 3 -104 2
-107 -20 -110 -34 -5 -37 -38 -4 -38 24 0 26 -3 26 -43 0 -23 -7 -53 -16 -65
-16 -24 -6 -29 26 -12 13 7 28 4 58 -13 22 -12 44 -18 49 -14 4 5 3 11 -3 15
-17 11 -34 49 -34 76 0 30 1 30 33 15 22 -10 31 -6 76 27 l51 38 0 122 0 122
-36 32 -37 32 -40 -39 c-24 -23 -41 -33 -44 -26 -6 18 -43 63 -51 63 -4 0 -22
-13 -40 -28z m168 -168 l0 -106 -32 7 c-18 4 -36 9 -40 12 -5 2 -8 41 -8 85 0
70 3 85 21 104 17 18 26 21 40 13 17 -8 19 -23 19 -115z"/>
<path d="M1288 512 c-42 -30 -47 -42 -18 -42 19 0 20 -7 20 -110 0 -103 -1
-110 -20 -110 -13 0 -20 -7 -20 -20 0 -13 7 -20 20 -20 17 0 20 -7 20 -48 0
-26 -5 -53 -12 -60 -17 -17 0 -28 22 -15 15 10 26 8 59 -10 43 -24 64 -18 38
11 -10 10 -17 35 -17 55 0 35 1 36 24 26 20 -9 31 -5 80 27 l56 38 0 114 0
113 -38 40 -37 40 -42 -35 c-45 -39 -53 -43 -53 -23 0 8 -10 23 -22 34 l-23
21 -37 -26z m154 -59 c15 -13 18 -32 18 -115 0 -54 -4 -98 -9 -98 -5 0 -23 3
-40 6 l-31 7 0 90 c0 70 4 95 17 109 20 22 22 22 45 1z"/>
<path d="M1668 506 l-57 -31 -3 -115 c-2 -63 -7 -122 -11 -132 -7 -13 -2 -18
25 -23 18 -4 50 -16 71 -27 l38 -19 59 28 59 28 0 136 1 137 -27 7 c-15 3 -43
14 -63 24 -36 17 -36 17 -92 -13z m98 -66 c2 0 4 -47 4 -105 0 -58 -3 -105 -7
-105 -4 0 -22 5 -40 12 l-33 12 0 108 0 108 36 -15 c20 -8 38 -15 40 -15z"/>
</g>
</svg>
