<svg id="Layer_1" data-name="Layer 1" xmlns="http://www.w3.org/2000/svg" viewBox="0 0 933.72 268.51"><rect width="933.72" height="268.51" rx="30" fill="#009f46"/><path d="M442.69,79.68a92.54,92.54,0,0,0-80.14,138.71l-13.12,47.93,49-12.86a92.38,92.38,0,0,0,44.19,11.25h0a92.52,92.52,0,0,0,0-185Zm0,169.41h0a76.76,76.76,0,0,1-39.13-10.71l-2.8-1.67-29.09,7.63L379.4,216l-1.83-2.91a76.87,76.87,0,1,1,65.12,36Zm42.16-57.57c-2.31-1.15-13.67-6.74-15.79-7.51s-3.66-1.16-5.2,1.15-6,7.52-7.32,9.06-2.69,1.74-5,.58-9.76-3.6-18.58-11.47a69.45,69.45,0,0,1-12.86-16c-1.35-2.31-.14-3.56,1-4.71s2.32-2.7,3.47-4.05a15.5,15.5,0,0,0,2.31-3.86,4.23,4.23,0,0,0-.19-4c-.58-1.16-5.2-12.53-7.13-17.16s-3.78-3.9-5.2-4-2.88-.08-4.42-.08a8.52,8.52,0,0,0-6.17,2.89c-2.11,2.32-8.08,7.91-8.08,19.28S404,174,405.13,175.53s16.3,24.88,39.48,34.89a130.74,130.74,0,0,0,13.17,4.86,31.72,31.72,0,0,0,14.55.92c4.44-.66,13.68-5.59,15.6-11s1.93-10,1.35-11S487.16,192.68,484.85,191.52Zm163.6-1.41h-.24l-15.34-61.85H614.4l-15.59,61.1h-.25l-14.2-61.1H564.63L588.38,218h20l15-61.1h.25L638.78,218h19.61l24.13-89.76H663.16Zm94.27-31.5a17.46,17.46,0,0,0-7.23-5.4,30.51,30.51,0,0,0-11.75-1.94,23.42,23.42,0,0,0-10.31,2.57,20.68,20.68,0,0,0-8.67,8.24h-.38V128.26H686.54V218h17.84V184q0-9.93,3.27-14.27t10.56-4.34q6.4,0,8.92,4c1.68,2.63,2.52,6.64,2.52,12V218H747.5V178a52.62,52.62,0,0,0-1.07-11A21.09,21.09,0,0,0,742.72,158.61Zm73.52,44.95V169.75c0-3.95-.87-7.11-2.64-9.5a18.07,18.07,0,0,0-6.78-5.59,30.45,30.45,0,0,0-9.18-2.7,72.93,72.93,0,0,0-9.93-.69A54.78,54.78,0,0,0,777,152.33a30.73,30.73,0,0,0-9.62,3.59,21.22,21.22,0,0,0-7,6.66A20.63,20.63,0,0,0,757.17,173H775c.33-3.52,1.51-6,3.52-7.54s4.77-2.26,8.3-2.26a29.94,29.94,0,0,1,4.46.31,9.88,9.88,0,0,1,3.64,1.26,6.79,6.79,0,0,1,2.51,2.64,9.45,9.45,0,0,1,.94,4.59,4.82,4.82,0,0,1-1.63,4.21,11.88,11.88,0,0,1-4.77,2.2,48.08,48.08,0,0,1-6.92,1.13c-2.6.25-5.23.59-7.91,1a72.59,72.59,0,0,0-8,1.7,22.32,22.32,0,0,0-7,3.2,16.4,16.4,0,0,0-5,5.72,19.08,19.08,0,0,0-1.94,9.12,20.26,20.26,0,0,0,1.7,8.67,16.35,16.35,0,0,0,4.71,6,19.86,19.86,0,0,0,7,3.53,32,32,0,0,0,8.67,1.13,40.42,40.42,0,0,0,11.81-1.76,23.27,23.27,0,0,0,10.06-6.17,25.83,25.83,0,0,0,.44,3.21,24.48,24.48,0,0,0,.82,3.08h18.1a15,15,0,0,1-1.76-6A67,67,0,0,1,816.24,203.56Zm-17.85-10.69a33.65,33.65,0,0,1-.31,4,13.53,13.53,0,0,1-1.69,5,11.92,11.92,0,0,1-4.28,4.21c-1.92,1.17-4.65,1.76-8.17,1.76a22.64,22.64,0,0,1-4.15-.38,9.94,9.94,0,0,1-3.51-1.32,6.68,6.68,0,0,1-2.39-2.58,8.33,8.33,0,0,1-.88-4,8.68,8.68,0,0,1,.88-4.15,8.08,8.08,0,0,1,2.32-2.7,11.77,11.77,0,0,1,3.4-1.7,31,31,0,0,1,4-1c1.42-.25,2.84-.47,4.27-.63s2.78-.38,4.08-.63a28.56,28.56,0,0,0,3.65-.95,7.69,7.69,0,0,0,2.82-1.57Zm51.16-59.33H831.7V153H820.89V165H831.7v38.35a16.72,16.72,0,0,0,1.63,7.92,11.78,11.78,0,0,0,4.46,4.66,18.43,18.43,0,0,0,6.54,2.19,51.8,51.8,0,0,0,7.86.57c1.76,0,3.56-.05,5.41-.12a42.08,42.08,0,0,0,5-.51V204.19a23.61,23.61,0,0,1-2.64.38c-.92.08-1.89.13-2.89.13q-4.53,0-6-1.52t-1.5-6V165h13.07V153H849.55Zm73.77,56a16,16,0,0,0-4.65-5.16,25.57,25.57,0,0,0-6.6-3.34,78.86,78.86,0,0,0-7.6-2.13c-2.52-.58-5-1.13-7.41-1.63a58.38,58.38,0,0,1-6.48-1.7,13.4,13.4,0,0,1-4.58-2.45,5.39,5.39,0,0,1-.76-7.11,6.7,6.7,0,0,1,2.45-1.82,11.06,11.06,0,0,1,3.2-.82,32.48,32.48,0,0,1,3.27-.18,17.89,17.89,0,0,1,8.3,1.82c2.34,1.21,3.65,3.54,3.89,7h17a21.28,21.28,0,0,0-3.08-10,20.21,20.21,0,0,0-6.47-6.35,27.06,27.06,0,0,0-8.86-3.39,51.47,51.47,0,0,0-10.24-1,56.38,56.38,0,0,0-10.3.93,28.41,28.41,0,0,0-9.06,3.28,18.11,18.11,0,0,0-6.47,6.34,19.5,19.5,0,0,0-2.45,10.31,13.91,13.91,0,0,0,1.76,7.23,15.08,15.08,0,0,0,4.64,4.9,26.25,26.25,0,0,0,6.61,3.15q3.71,1.2,7.6,2.08a104.76,104.76,0,0,1,14.89,4q5.36,2,5.35,6a6.62,6.62,0,0,1-1.13,4,8.52,8.52,0,0,1-2.83,2.51,13.26,13.26,0,0,1-3.77,1.39,19.43,19.43,0,0,1-4,.44,20.34,20.34,0,0,1-5.09-.63,13.22,13.22,0,0,1-4.34-2,10.46,10.46,0,0,1-3.08-3.39,9.88,9.88,0,0,1-1.2-5h-17a21.84,21.84,0,0,0,3,10.88,21.38,21.38,0,0,0,6.9,7,29.37,29.37,0,0,0,9.63,3.78,53.94,53.94,0,0,0,11,1.13,55.49,55.49,0,0,0,10.87-1.07,27.49,27.49,0,0,0,9.49-3.71,19.72,19.72,0,0,0,9.3-17.73A15.12,15.12,0,0,0,923.32,189.55Zm35.44-61.29L924.83,218h19.86l7-20h33.57l6.78,20h20.49L979,128.26Zm-1.88,55.06,11.69-32.94h.25l11.31,32.94Zm117.39-21.5a27.18,27.18,0,0,0-9.18-7.66,28,28,0,0,0-13.19-2.89,25.44,25.44,0,0,0-11.06,2.38,19.57,19.57,0,0,0-8.29,7.67h-.26V153h-17v87.76h17.85V210h.25a20.93,20.93,0,0,0,8.36,7.22,25.2,25.2,0,0,0,11.12,2.46,26.89,26.89,0,0,0,12.51-2.77,26.46,26.46,0,0,0,8.92-7.42,32.3,32.3,0,0,0,5.35-10.68,45.24,45.24,0,0,0,1.75-12.58,50,50,0,0,0-1.75-13.26A32.79,32.79,0,0,0,1074.27,161.82Zm-11.43,31.56a19,19,0,0,1-2.59,6.6,14.49,14.49,0,0,1-24.25,0,19.6,19.6,0,0,1-2.64-6.6,35.72,35.72,0,0,1-.81-7.66,39.84,39.84,0,0,1,.74-7.8,19.71,19.71,0,0,1,2.58-6.67,14.64,14.64,0,0,1,4.78-4.71,13.79,13.79,0,0,1,7.35-1.83,13.59,13.59,0,0,1,7.23,1.83,15.1,15.1,0,0,1,4.84,4.77,20.84,20.84,0,0,1,2.7,6.73,36.55,36.55,0,0,1,.81,7.68A39.94,39.94,0,0,1,1062.84,193.38Zm88-20.43a32.61,32.61,0,0,0-5.41-11.13,27.14,27.14,0,0,0-9.17-7.66,28,28,0,0,0-13.2-2.89,25.47,25.47,0,0,0-11.06,2.38,19.71,19.71,0,0,0-8.3,7.67h-.24V153h-17v87.76h17.84V210h.25a21,21,0,0,0,8.36,7.22,25.28,25.28,0,0,0,11.13,2.46,27,27,0,0,0,12.51-2.77,26.55,26.55,0,0,0,8.92-7.42,32.09,32.09,0,0,0,5.34-10.68,44.51,44.51,0,0,0,1.76-12.58A49.17,49.17,0,0,0,1150.81,173ZM1134,193.38a18.55,18.55,0,0,1-2.57,6.6,15.15,15.15,0,0,1-19.42,4.59,14.11,14.11,0,0,1-4.84-4.59,20,20,0,0,1-2.64-6.6,36.37,36.37,0,0,1-.82-7.66,39.84,39.84,0,0,1,.76-7.8,19.51,19.51,0,0,1,2.58-6.67,14.71,14.71,0,0,1,4.77-4.71,13.82,13.82,0,0,1,7.36-1.83,13.56,13.56,0,0,1,7.22,1.83,15,15,0,0,1,4.84,4.77,20.4,20.4,0,0,1,2.7,6.73,35.91,35.91,0,0,1,.82,7.68A38.42,38.42,0,0,1,1134,193.38Z" transform="translate(-284.14 -38.75)" fill="#fff"/></svg>